HIERARCHY
ROOT Hips
{
 OFFSET 0.000000 0.000000 0.000000
 CHANNELS 6 Xposition Yposition Zposition Yrotation Xrotation Zrotation
 JOINT Chest
 {
  OFFSET 0.000000 10.354800 0.006500
  CHANNELS 3 Yrotation Xrotation Zrotation
  JOINT Chest2
  {
   OFFSET 0.000000 10.435800 -0.013200
   CHANNELS 3 Yrotation Xrotation Zrotation
   JOINT Chest3
   {
    OFFSET 0.000000 10.393700 0.000000
    CHANNELS 3 Yrotation Xrotation Zrotation
    JOINT Chest4
    {
     OFFSET 0.000000 10.383100 0.000000
     CHANNELS 3 Yrotation Xrotation Zrotation
     JOINT Neck
     {
      OFFSET 0.000000 15.694000 0.000000
      CHANNELS 3 Yrotation Xrotation Zrotation
      JOINT Head
      {
       OFFSET 0.000000 9.711000 -0.028000
       CHANNELS 3 Yrotation Xrotation Zrotation
       End Site
       {
        OFFSET 0.000000 18.578700 -0.014800
       }
      }
     }
     JOINT RightCollar
     {
      OFFSET -3.157200 10.367500 0.000000
      CHANNELS 3 Yrotation Xrotation Zrotation
      JOINT RightShoulder
      {
       OFFSET -14.482500 0.000000 0.000000
       CHANNELS 3 Yrotation Xrotation Zrotation
       JOINT RightElbow
       {
        OFFSET 0.000000 -31.707800 0.000000
        CHANNELS 3 Yrotation Xrotation Zrotation
        JOINT RightWrist
        {
         OFFSET 0.000000 -25.659300 0.000000
         CHANNELS 3 Yrotation Xrotation Zrotation
         End Site
         {
          OFFSET 0.000000 -18.994300 0.000000
         }
        }
       }
      }
     }
     JOINT LeftCollar
     {
      OFFSET 3.157200 10.367500 0.000000
      CHANNELS 3 Yrotation Xrotation Zrotation
      JOINT LeftShoulder
      {
       OFFSET 14.482500 0.000000 0.000000
       CHANNELS 3 Yrotation Xrotation Zrotation
       JOINT LeftElbow
       {
        OFFSET 0.000000 -31.707800 0.000000
        CHANNELS 3 Yrotation Xrotation Zrotation
        JOINT LeftWrist
        {
         OFFSET 0.000000 -25.659300 0.000000
         CHANNELS 3 Yrotation Xrotation Zrotation
         End Site
         {
          OFFSET 0.000000 -18.994300 0.000000
         }
        }
       }
      }
     }
    }
   }
  }
 }
 JOINT RightHip
 {
  OFFSET -8.365600 -0.032100 -0.003200
  CHANNELS 3 Yrotation Xrotation Zrotation
  JOINT RightKnee
  {
   OFFSET 0.000000 -43.980000 0.003100
   CHANNELS 3 Yrotation Xrotation Zrotation
   JOINT RightAnkle
   {
    OFFSET 0.000000 -42.882800 0.005200
    CHANNELS 3 Yrotation Xrotation Zrotation
    JOINT RightToe
    {
     OFFSET 0.000000 -4.915500 10.826300
     CHANNELS 3 Yrotation Xrotation Zrotation
     End Site
     {
      OFFSET 0.000000 -1.517500 6.175900
     }
    }
   }
  }
 }
 JOINT LeftHip
 {
  OFFSET 8.365600 -0.032100 -0.003200
  CHANNELS 3 Yrotation Xrotation Zrotation
  JOINT LeftKnee
  {
   OFFSET 0.000000 -43.980000 0.003100
   CHANNELS 3 Yrotation Xrotation Zrotation
   JOINT LeftAnkle
   {
    OFFSET 0.000000 -42.882800 0.005200
    CHANNELS 3 Yrotation Xrotation Zrotation
    JOINT LeftToe
    {
     OFFSET 0.000000 -4.915500 10.826300
     CHANNELS 3 Yrotation Xrotation Zrotation
     End Site
     {
      OFFSET 0.000000 -1.517500 6.175900
     }
    }
   }
  }
 }
}
MOTION
Frames: 9
Frame Time: 0.008333
0.000000 91.618600 0.000000 0.000000 -5.767877 0.000000 0.000000 11.653817 0.000000 0.000000 -5.885947 0.000000 0.000000 -0.000000 0.000000 0.000000 -0.000000 0.000000 0.000000 12.528835 0.000000 0.000000 0.711642 0.000000 0.000000 -0.000000 0.000000 0.000000 0.000000 -90.000000 0.000000 -2.309062 0.000000 0.000000 2.309062 0.000000 0.000000 -0.000000 0.000000 0.000000 -0.000000 90.000000 0.000000 -2.309062 0.000000 0.000000 2.309062 0.000000 0.000000 8.520406 0.000000 0.000000 1.905762 0.000000 -0.000000 -4.658285 0.000000 0.000000 -0.000000 0.000000 0.000000 8.520406 0.000000 0.000000 1.905762 0.000000 -0.000000 -4.658285 0.000000 0.000000 -0.000000 0.000000
-11.088060 146.999118 26.449425 177.358696 -19.255274 -3.673427 -2.145314 11.074053 2.994958 -0.172621 0.782813 0.236571 -0.291159 1.335976 0.398914 -1.988930 10.137500 2.880421 -0.827031 21.302083 -2.995610 -0.201791 -3.001517 -3.020696 3.177817 6.709659 -4.163455 12.460695 -8.467375 -6.447556 68.957665 -45.779240 -61.716764 -0.346588 9.457563 -0.491900 -3.662415 9.767526 0.902131 -0.442443 -5.906502 -4.104537 -85.588656 -53.625648 81.000874 -6.193772 -2.817214 9.819770 8.744809 -59.491581 -9.839907 -141.032815 75.957837 -134.190758 -0.226508 -21.870775 3.122045 0.015788 -0.116560 0.004700 -18.581256 -60.600847 16.213257 117.998846 77.788413 115.896420 -1.453483 -16.179474 -3.429322 0.031993 0.124656 0.015956
-10.714071 140.488267 26.528084 177.370323 -19.255129 -3.732276 -2.145467 11.078575 3.052828 -0.172547 0.781714 0.235284 -0.293078 1.338070 0.400928 -1.987930 10.139547 2.880215 -0.832904 21.301529 -2.994662 -0.208275 -3.002182 -3.018329 3.179202 6.715200 -4.157835 12.492339 -8.476203 -6.454039 68.990483 -45.708173 -61.741185 -0.272629 9.446212 -0.545490 -3.656236 9.769202 0.899016 -0.431174 -5.881965 -4.099902 -85.639056 -53.629241 81.044390 -6.196635 -2.805567 9.803287 8.652218 -59.506906 -9.738993 -141.035702 75.950197 -134.198404 -0.218078 -21.921093 3.130169 0.002550 -0.063984 0.001158 -18.672213 -60.575006 16.310966 117.948158 77.795007 115.847520 -1.435774 -16.125031 -3.423369 0.011791 0.062494 0.005357
-10.405616 135.126660 26.592351 177.389901 -19.258544 -3.785914 -2.153683 11.084700 3.100515 -0.172236 0.782383 0.235453 -0.291579 1.340696 0.402014 -1.993404 10.142244 2.881334 -0.836943 21.303552 -2.989092 -0.206707 -3.008887 -3.021862 3.181857 6.716313 -4.157571 12.530124 -8.478356 -6.453466 69.026018 -45.629610 -61.778514 -0.231468 9.439269 -0.588806 -3.651450 9.764656 0.896261 -0.430094 -5.879776 -4.098720 -85.615014 -53.618369 81.030149 -6.197006 -2.806230 9.772784 8.556790 -59.516444 -9.648585 -141.054745 75.942371 -134.218185 -0.216901 -21.960558 3.131874 0.000131 -0.025460 0.000059 -18.758863 -60.550304 16.398156 117.908849 77.795330 115.806862 -1.436918 -16.086486 -3.418481 0.001615 0.023042 0.000733
-10.186693 131.254033 26.639043 177.401502 -19.259188 -3.801672 -2.161949 11.086025 3.112311 -0.172287 0.782494 0.235387 -0.289440 1.342922 0.404624 -1.998851 10.144785 2.880171 -0.837646 21.303304 -2.985419 -0.207564 -3.010173 -3.020921 3.182948 6.718815 -4.155938 12.561929 -8.482764 -6.458934 69.070549 -45.549927 -61.819454 -0.211710 9.434501 -0.626000 -3.646976 9.759817 0.894956 -0.415121 -5.867172 -4.098660 -85.592652 -53.601442 81.013835 -6.200145 -2.812727 9.711479 8.527743 -59.521224 -9.627325 -141.069705 75.938247 -134.232357 -0.218466 -21.969759 3.131523 0.001652 -0.016434 0.000750 -18.786592 -60.541533 16.419423 117.872172 77.794244 115.771409 -1.441830 -16.075768 -3.416853 -0.000040 0.013569 -0.000018
-10.048225 128.808002 26.669295 177.406264 -19.256759 -3.810728 -2.160700 11.086420 3.125194 -0.173045 0.783805 0.236101 -0.294192 1.341696 0.402303 -1.998452 10.146115 2.880679 -0.839494 21.302402 -2.982541 -0.214603 -3.006967 -3.017555 3.182195 6.718417 -4.157632 12.596144 -8.484674 -6.456841 69.117985 -45.458762 -61.870354 -0.186544 9.430828 -0.657161 -3.643045 9.755089 0.893864 -0.390264 -5.842547 -4.093969 -85.637947 -53.607208 81.041295 -6.204112 -2.810577 9.685324 8.512733 -59.528155 -9.614102 -141.082472 75.935288 -134.249486 -0.218566 -21.976742 3.128300 -0.000221 -0.011158 -0.000100 -18.803256 -60.538253 16.436857 117.841516 77.798858 115.743129 -1.442772 -16.065399 -3.419262 0.001080 0.007513 0.000490
-9.970485 127.462890 26.686057 177.399479 -19.257651 -3.819493 -2.158853 11.089978 3.137584 -0.172686 0.783153 0.236063 -0.293853 1.341943 0.402910 -1.997705 10.149803 2.890437 -0.838692 21.298725 -2.990524 -0.218915 -3.006606 -3.015726 3.185220 6.717203 -4.170396 12.639822 -8.482268 -6.450151 69.161548 -45.357935 -61.932549 -0.157159 9.428038 -0.682486 -3.638364 9.750801 0.880221 -0.376405 -5.829030 -4.094116 -85.660404 -53.606489 81.057666 -6.212415 -2.809898 9.659369 8.508186 -59.526277 -9.601061 -141.077450 75.934932 -134.234844 -0.213399 -21.982639 3.121224 0.000698 -0.005652 0.000317 -18.816885 -60.529248 16.464918 117.841331 77.804711 115.740927 -1.439188 -16.066990 -3.423275 0.002286 0.005055 0.001038
-9.933505 126.822519 26.693994 177.395430 -19.260590 -3.820655 -2.159769 11.092371 3.142949 -0.172791 0.783461 0.236321 -0.293992 1.342407 0.403362 -1.994583 10.150680 2.889679 -0.838662 21.298621 -2.988807 -0.212910 -3.006089 -3.016697 3.193829 6.724187 -4.172937 12.647647 -8.487102 -6.449870 69.228502 -45.263444 -61.989737 -0.127590 9.425464 -0.705310 -3.643811 9.750208 0.880476 -0.356162 -5.813455 -4.101218 -85.666592 -53.602002 81.065949 -6.215761 -2.824363 9.643502 8.508300 -59.523383 -9.596720 -141.073881 75.934200 -134.229193 -0.212975 -21.986479 3.115010 0.000408 -0.003823 0.000185 -18.817122 -60.524539 16.470043 117.847036 77.802878 115.747519 -1.440058 -16.068120 -3.427007 0.002210 0.002726 0.001003
-9.918418 126.560653 26.697502 177.400809 -19.262723 -3.820202 -2.165982 11.093817 3.145793 -0.173355 0.783862 0.236425 -0.294435 1.342524 0.400753 -1.996253 10.151966 2.890387 -0.840062 21.298767 -2.987856 -0.210123 -3.006788 -3.019882 3.202805 6.742305 -4.175839 12.680585 -8.486516 -6.444550 69.286317 -45.167249 -62.071892 -0.097315 9.425537 -0.723211 -3.643228 9.749268 0.877990 -0.351572 -5.803883 -4.102964 -85.646778 -53.593044 81.062724 -6.216105 -2.845645 9.623334 8.506491 -59.520522 -9.600142 -141.063567 75.932459 -134.218798 -0.209350 -21.986480 3.112505 0.000861 -0.003558 0.000391 -18.819278 -60.523536 16.468840 117.865582 77.805310 115.764190 -1.440154 -16.068485 -3.427268 0.002495 0.000844 0.001133
